PathFileType	4	(X/Y/Z)	c:\Git\powerlifing_model_clean\simulations\HC835B\Session1\HC835B_CUT_0005\marker_experimental.trc
DataRate	CameraRate	NumFrames	NumMarkers	Units	OrigDataRate	OrigDataStartFrame	OrigNumFrames
240.000000	240.000000	4	38	mm	240.000000	28	75
Frame#	Time	RPSI			LPSI			RASI			LASI			RTH1			RTH2			RTH3			RTH4			RSK1			RSK2			RSK3			RSK4			RCAL1			RCAL2			RCAL3			RST			RPT			RTN			RFMB			RSMB			RVMB			RFMH			RSMH			RVMH			RPM			LTH1			LTH2			LTH3			LTH4			LSK1			LSK2			LSK3			LSK4			LCAL1			LCAL2			LCAL3			LFMH			LVMH			
		X1	Y1	Z1	X2	Y2	Z2	X3	Y3	Z3	X4	Y4	Z4	X5	Y5	Z5	X6	Y6	Z6	X7	Y7	Z7	X8	Y8	Z8	X9	Y9	Z9	X10	Y10	Z10	X11	Y11	Z11	X12	Y12	Z12	X13	Y13	Z13	X14	Y14	Z14	X15	Y15	Z15	X16	Y16	Z16	X17	Y17	Z17	X18	Y18	Z18	X19	Y19	Z19	X20	Y20	Z20	X21	Y21	Z21	X22	Y22	Z22	X23	Y23	Z23	X24	Y24	Z24	X25	Y25	Z25	X26	Y26	Z26	X27	Y27	Z27	X28	Y28	Z28	X29	Y29	Z29	X30	Y30	Z30	X31	Y31	Z31	X32	Y32	Z32	X33	Y33	Z33	X34	Y34	Z34	X35	Y35	Z35	X36	Y36	Z36	X37	Y37	Z37	X38	Y38	Z38	

29	0.1166666666666667	194.5266113281251	1006.758361816406	-295.5411376953126	111.7766418457032	969.4158325195315	-239.6196899414063	153.2853393554688	964.618347167969	-511.7984924316407	-38.37532424926759	900.779235839844	-385.0205688476564	321.9563293457032	748.4114379882814	-559.4816894531251	285.0410156250001	740.6633300781251	-606.8930053710939	323.4912414550782	672.9914550781251	-597.4463500976564	281.7292480468751	660.8483276367189	-636.8690795898439	510.686248779297	287.1148071289063	-564.2042236328126	492.5266113281251	256.9493103027344	-615.0109252929689	529.0025634765626	231.9530181884766	-572.9588623046876	502.2208251953126	198.7445373535157	-615.1920776367189	595.7666625976564	93.91368103027345	-489.4411926269532	568.7546386718751	54.39932250976564	-477.2966918945314	628.2232666015626	59.07053756713869	-502.3812561035157	523.1265869140626	52.65085220336915	-533.7086181640626	628.2579956054689	67.45066833496095	-567.3283691406251	510.0375976562501	64.72425079345705	-594.3840332031251	506.7983398437501	60.02900314331056	-627.9011840820314	545.0586547851564	89.06832122802736	-649.3154907226564	625.3345336914064	42.67490386962891	-610.2031250000001	495.7817993164064	44.70331573486329	-677.9572753906251	537.2805175781251	58.17832565307619	-712.0953979492189	611.8413696289064	33.72076416015626	-687.5770263671876	507.7127380371095	36.5336036682129	-764.3088989257814	-6.521465778350832	593.0702514648439	-362.3464660644532	-38.11163711547852	595.5308227539064	-413.9162597656251	-3.777496099472047	521.1223754882814	-408.919647216797	-22.73932266235352	528.4924316406251	-466.6400146484376	183.7115325927735	456.8914489746095	-235.4654235839844	206.0876922607422	409.3872985839845	-224.116439819336	220.9525299072266	446.5249328613282	-194.0794830322266	254.8507843017579	401.6439208984376	-192.9206085205079	329.8092346191407	531.3005371093751	-95.00949096679689	325.8566284179688	521.0960083007814	-48.71075439453126	373.3657226562501	538.3767700195314	-77.61293792724611	442.2454833984376	331.2584838867188	-119.5359802246094	363.8015136718751	332.6517333984376	-41.10852432250977	
30	0.1208333333333333	188.4727935791016	1007.489135742188	-313.0780944824219	108.4941711425782	967.0139770507815	-257.3188476562501	149.1114501953125	962.018249511719	-529.1809082031251	-41.55537796020509	897.0313720703127	-403.0660095214845	319.3638305664063	748.1768798828126	-574.2564697265626	282.8298339843751	740.5161743164064	-622.0394287109376	321.1659545898438	672.8154907226564	-612.4675292968751	279.1620483398438	660.6081542968751	-651.5875244140626	508.7316894531251	287.0065307617188	-570.2078247070314	491.6012573242189	255.6941223144532	-620.6773681640626	527.6532592773439	231.9658508300782	-577.5012817382814	501.5854492187501	197.5593872070313	-619.3729248046876	594.4462890625001	94.90593719482423	-489.7412719726564	567.6319580078126	55.25572204589845	-477.5372314453126	627.5054321289064	60.47042846679689	-502.3319091796876	522.2307128906251	52.85670089721681	-534.3817138671876	627.4660034179689	68.49958801269533	-567.3604736328126	509.2378845214845	65.11106109619142	-594.8226318359376	505.9940795898439	60.41759490966798	-629.3088989257814	544.4557495117189	88.74524688720705	-650.2662963867189	624.8032836914064	43.22896194458009	-610.0934448242189	495.779998779297	44.80968093872071	-678.4872436523439	537.4352416992189	57.98204803466798	-712.3479614257814	611.8712158203126	33.73211669921876	-687.5895996093751	507.8956298828126	36.21392440795899	-764.7247924804689	-15.87004184722901	594.2131958007814	-387.0055236816407	-48.1284866333008	598.7383422851564	-438.3938598632814	-14.91692733764649	523.6843261718751	-435.5595703125001	-34.21694564819337	533.0040893554689	-493.1310424804689	174.5088043212891	454.7250366210939	-268.6426086425782	196.9387512207032	407.1293334960939	-258.6238403320313	212.3559875488282	443.204315185547	-228.2420043945313	245.9626617431641	397.7536010742189	-228.6828918457032	323.8793945312501	524.9830322265626	-127.8022384643555	320.6635437011719	513.2808837890626	-81.69892883300783	367.7226562500001	531.2080688476564	-110.93359375	434.6728515625001	325.4273071289063	-161.3387908935547	357.5937194824219	324.1860351562501	-81.31700897216798	
31	0.125	182.5426483154297	1008.205810546875	-330.7125549316407	103.1634292602539	966.3273925781252	-274.7118835449219	144.9239959716797	959.8137817382815	-546.6320800781251	-44.72616195678712	893.1335449218752	-420.9428100585939	316.8327026367188	747.7225341796876	-589.0628051757814	280.7607116699219	739.9711303710939	-637.1686401367189	319.1050720214844	672.3579101562501	-627.1780395507814	276.9082031250001	659.6378173828126	-665.9947509765626	506.7553710937501	287.8365478515626	-575.1670532226564	491.0665283203126	255.6805114746094	-625.5299072265626	526.2926635742189	232.8881225585938	-581.2569580078126	501.513641357422	197.592269897461	-623.2026367187501	593.1126708984376	95.93221282958986	-490.1851806640626	566.5364379882814	55.99954986572267	-478.0925598144532	627.2140502929689	62.11548233032228	-502.4575195312501	521.1036376953126	53.32627868652345	-535.0367431640626	626.7615966796876	69.31990814208986	-567.4790649414064	508.7820434570314	65.41931152343751	-595.4166259765626	505.6160278320314	60.5509490966797	-630.2875976562501	544.2176513671876	88.72796630859376	-651.0425415039064	624.4713745117189	43.75981903076173	-610.0881347656251	495.9712829589845	44.73478317260743	-678.8910522460939	537.7659912109376	57.81845092773439	-712.8966064453126	611.9453125000001	33.66182327270509	-687.6492309570314	508.0244445800782	35.74764251708985	-765.1862182617189	-25.92025947570801	596.0318603515626	-411.3284301757814	-58.36320114135744	602.7380981445314	-462.0654602050782	-26.21347427368165	526.8500366210939	-462.4646301269532	-45.90169525146485	538.5283813476564	-519.2823486328126	165.3603820800782	452.2482299804689	-301.4540405273438	187.7262420654297	404.4129638671876	-293.1314697265626	203.4382324218751	440.0013122558595	-261.4256286621094	237.2434387207032	393.8004150390626	-264.3125610351563	318.1601257324219	517.4387207031251	-160.4924621582032	314.7273254394532	505.0916748046876	-114.5123443603516	362.5692138671876	522.8796386718751	-144.3306121826172	427.1909179687501	318.9944763183594	-204.1169128417969	351.5516357421876	314.7332763671876	-122.6059722900391	
32	0.1291666666666667	176.6699981689453	1008.807678222656	-348.4784851074219	97.0478210449219	966.0752563476565	-291.9670410156251	140.673828125	958.079284667969	-564.2313842773439	-48.1559181213379	888.8924560546877	-438.2827758789064	314.5601501464844	747.1799926757814	-603.8393554687501	278.7362670898438	739.0115966796876	-652.0938720703126	316.9857177734376	671.4449462890626	-641.6968994140626	274.6800537109376	658.4358520507814	-680.0902099609376	505.1415405273439	288.9367065429688	-579.2598266601564	491.0372924804689	255.9992980957032	-629.6251831054689	525.2252197265626	233.9898529052735	-584.1879882812501	502.0303344726564	198.1320343017579	-626.4707641601564	591.9752807617189	96.84272766113284	-490.476776123047	565.4749145507814	56.54061889648439	-478.4445190429689	625.2792968750001	62.45116806030275	-502.4897766113282	520.3177490234376	53.92011642456056	-535.4537963867189	625.9982910156251	69.95478820800783	-567.5453491210939	508.3377075195314	65.50318145751955	-595.9588012695314	505.3310852050782	60.58796310424806	-631.0506591796876	544.0488281250001	88.6378631591797	-651.5681762695314	624.0843505859376	44.19889450073243	-610.0318603515626	496.0538330078126	44.72294998168946	-679.2841186523439	537.9318847656251	57.70235061645509	-713.4050903320314	612.0635375976564	33.6520004272461	-687.6707763671876	508.5091247558595	35.60945510864259	-765.5745239257814	-35.43328094482423	598.2877197265626	-435.5696105957032	-68.58108520507814	607.0693969726564	-485.6721191406251	-37.73847579956055	530.7646484375001	-488.8585510253907	-57.72042846679689	544.3555297851564	-545.1570434570314	156.6406860351563	449.8856201171876	-333.7027893066407	178.741683959961	401.6933593750001	-327.3848876953126	195.338607788086	435.8845520019532	-294.9510498046876	228.6536865234376	390.0442199707032	-300.1734008789063	312.9747009277344	509.2383117675782	-193.1790771484376	310.5656433105469	494.4939880371095	-147.7816314697266	357.5477294921876	513.4909057617189	-177.816650390625	418.9349060058595	311.8170166015626	-247.5860900878907	345.3078918457032	304.4773254394532	-164.5413665771485	
